ply
format ascii 1.0
element vertex 300
property float x
property float y
property float z
property uchar red
property uchar green
property uchar blue
end_header
-2.18557e-07 5.32907e-15 0  255 0 0
0.026206 6.86761e-05 0  255 0 0
0.0524116 0.000274705 0  255 0 0
0.0786163 0.00061809 0  255 0 0
0.104818 0.00109881 0  255 0 0
0.131017 0.00171685 0  255 0 0
0.157213 0.00247219 0  255 0 0
0.183404 0.00336485 0  255 0 0
0.209591 0.00439475 0  255 0 0
0.235771 0.00556188 0  255 0 0
0.261945 0.00686622 0  255 0 0
0.288112 0.00830775 0  255 0 0
0.314271 0.00988638 0  255 0 0
0.340421 0.0116021 0  255 0 0
0.366562 0.0134548 0  255 0 0
0.392693 0.0154446 0  255 0 0
0.418813 0.0175713 0  255 0 0
0.444921 0.0198348 0  255 0 0
0.471017 0.0222352 0  255 0 0
0.497101 0.0247723 0  255 0 0
0.523171 0.0274461 0  255 0 0
0.549226 0.0302565 0  255 0 0
0.575266 0.0332034 0  255 0 0
0.601291 0.0362868 0  255 0 0
0.627299 0.0395065 0  255 0 0
0.653289 0.0428624 0  255 0 0
0.679262 0.0463546 0  255 0 0
0.705216 0.0499828 0  255 0 0
0.731151 0.0537471 0  255 0 0
0.757066 0.0576472 0  255 0 0
0.78296 0.061683 0  255 0 0
0.808832 0.0658546 0  255 0 0
0.834682 0.0701617 0  255 0 0
0.860509 0.0746042 0  255 0 0
0.886313 0.079182 0  255 0 0
0.912092 0.083895 0  255 0 0
0.937846 0.0887431 0  255 0 0
0.963575 0.0937261 0  255 0 0
0.989276 0.0988438 0  255 0 0
1.01495 0.104096 0  255 0 0
1.0406 0.109483 0  255 0 0
1.06622 0.115004 0  255 0 0
1.09181 0.12066 0  255 0 0
1.11736 0.126449 0  255 0 0
1.14289 0.132373 0  255 0 0
1.16839 0.13843 0  255 0 0
1.19385 0.14462 0  255 0 0
1.21929 0.150944 0  255 0 0
1.24468 0.157401 0  255 0 0
1.27005 0.163992 0  255 0 0
1.29538 0.170715 0  255 0 0
1.32067 0.177571 0  255 0 0
1.34593 0.184559 0  255 0 0
1.37115 0.19168 0  255 0 0
1.39633 0.198932 0  255 0 0
1.42148 0.206317 0  255 0 0
1.44658 0.213833 0  255 0 0
1.47165 0.221481 0  255 0 0
1.49667 0.22926 0  255 0 0
1.52166 0.237169 0  255 0 0
1.5466 0.24521 0  255 0 0
1.5715 0.253382 0  255 0 0
1.59636 0.261684 0  255 0 0
1.62117 0.270116 0  255 0 0
1.64594 0.278678 0  255 0 0
1.67066 0.28737 0  255 0 0
1.69534 0.296191 0  255 0 0
1.71997 0.305141 0  255 0 0
1.74455 0.31422 0  255 0 0
1.76909 0.323428 0  255 0 0
1.79358 0.332765 0  255 0 0
1.81801 0.34223 0  255 0 0
1.8424 0.351822 0  255 0 0
1.86674 0.361543 0  255 0 0
1.89102 0.371391 0  255 0 0
1.91526 0.381365 0  255 0 0
1.93944 0.391467 0  255 0 0
1.96357 0.401696 0  255 0 0
1.98764 0.412051 0  255 0 0
2.01166 0.422531 0  255 0 0
2.03563 0.433138 0  255 0 0
2.05953 0.44387 0  255 0 0
2.08338 0.454727 0  255 0 0
2.10718 0.465709 0  255 0 0
2.13092 0.476816 0  255 0 0
2.15459 0.488046 0  255 0 0
2.17821 0.499401 0  255 0 0
2.20177 0.51088 0  255 0 0
2.22527 0.522482 0  255 0 0
2.24871 0.534206 0  255 0 0
2.27208 0.546054 0  255 0 0
2.2954 0.558024 0  255 0 0
2.31865 0.570115 0  255 0 0
2.34183 0.582329 0  255 0 0
2.36496 0.594664 0  255 0 0
2.38801 0.60712 0  255 0 0
2.411 0.619696 0  255 0 0
2.43393 0.632393 0  255 0 0
2.45679 0.64521 0  255 0 0
2.47958 0.658147 0  255 0 0
2.47958 0.658147 0  255 0 0
2.50445 0.672431 0  255 0 0
2.52941 0.686572 0  255 0 0
2.55445 0.70057 0  255 0 0
2.57956 0.714424 0  255 0 0
2.60476 0.728134 0  255 0 0
2.63003 0.741699 0  255 0 0
2.65539 0.755118 0  255 0 0
2.68082 0.768392 0  255 0 0
2.70632 0.78152 0  255 0 0
2.7319 0.794501 0  255 0 0
2.75755 0.807335 0  255 0 0
2.78328 0.820023 0  255 0 0
2.80908 0.832562 0  255 0 0
2.83495 0.844953 0  255 0 0
2.86089 0.857195 0  255 0 0
2.8869 0.869289 0  255 0 0
2.91298 0.881233 0  255 0 0
2.93912 0.893027 0  255 0 0
2.96534 0.904671 0  255 0 0
2.99162 0.916164 0  255 0 0
3.01797 0.927506 0  255 0 0
3.04438 0.938697 0  255 0 0
3.07085 0.949737 0  255 0 0
3.09739 0.960624 0  255 0 0
3.12399 0.971359 0  255 0 0
3.15065 0.981941 0  255 0 0
3.17737 0.99237 0  255 0 0
3.20416 1.00265 0  255 0 0
3.23099 1.01277 0  255 0 0
3.25789 1.02273 0  255 0 0
3.28485 1.03255 0  255 0 0
3.31185 1.04221 0  255 0 0
3.33892 1.05171 0  255 0 0
3.36604 1.06106 0  255 0 0
3.39321 1.07025 0  255 0 0
3.42043 1.07928 0  255 0 0
3.44771 1.08816 0  255 0 0
3.47504 1.09689 0  255 0 0
3.50241 1.10545 0  255 0 0
3.52983 1.11386 0  255 0 0
3.55731 1.12211 0  255 0 0
3.58483 1.13021 0  255 0 0
3.61239 1.13814 0  255 0 0
3.64 1.14592 0  255 0 0
3.66765 1.15354 0  255 0 0
3.69535 1.161 0  255 0 0
3.72309 1.1683 0  255 0 0
3.75087 1.17544 0  255 0 0
3.7787 1.18243 0  255 0 0
3.80656 1.18925 0  255 0 0
3.83446 1.19591 0  255 0 0
3.86239 1.20241 0  255 0 0
3.89037 1.20876 0  255 0 0
3.91838 1.21494 0  255 0 0
3.94642 1.22096 0  255 0 0
3.9745 1.22682 0  255 0 0
4.00262 1.23252 0  255 0 0
4.03076 1.23805 0  255 0 0
4.05894 1.24343 0  255 0 0
4.08714 1.24864 0  255 0 0
4.11538 1.25369 0  255 0 0
4.14365 1.25858 0  255 0 0
4.17194 1.26331 0  255 0 0
4.20026 1.26788 0  255 0 0
4.2286 1.27228 0  255 0 0
4.25697 1.27652 0  255 0 0
4.28536 1.2806 0  255 0 0
4.31378 1.28451 0  255 0 0
4.34222 1.28826 0  255 0 0
4.37068 1.29185 0  255 0 0
4.39916 1.29528 0  255 0 0
4.42765 1.29854 0  255 0 0
4.45617 1.30164 0  255 0 0
4.4847 1.30457 0  255 0 0
4.51326 1.30734 0  255 0 0
4.54182 1.30995 0  255 0 0
4.5704 1.31239 0  255 0 0
4.599 1.31467 0  255 0 0
4.6276 1.31678 0  255 0 0
4.65622 1.31873 0  255 0 0
4.68485 1.32052 0  255 0 0
4.71349 1.32214 0  255 0 0
4.74214 1.3236 0  255 0 0
4.77079 1.32489 0  255 0 0
4.79945 1.32602 0  255 0 0
4.82812 1.32698 0  255 0 0
4.85679 1.32778 0  255 0 0
4.88547 1.32842 0  255 0 0
4.91415 1.32889 0  255 0 0
4.94283 1.3292 0  255 0 0
4.97152 1.32934 0  255 0 0
5.0002 1.32932 0  255 0 0
5.02889 1.32913 0  255 0 0
5.05757 1.32878 0  255 0 0
5.08625 1.32826 0  255 0 0
5.11493 1.32758 0  255 0 0
5.1436 1.32673 0  255 0 0
5.17227 1.32572 0  255 0 0
5.20092 1.32455 0  255 0 0
5.20093 1.32455 0  0 255 0
5.17726 1.32578 0  0 255 0
5.15359 1.32712 0  0 255 0
5.12993 1.32858 0  0 255 0
5.10628 1.33014 0  0 255 0
5.08264 1.33182 0  0 255 0
5.05901 1.33361 0  0 255 0
5.03538 1.33552 0  0 255 0
5.01177 1.33753 0  0 255 0
4.98816 1.33966 0  0 255 0
4.96456 1.3419 0  0 255 0
4.94098 1.34425 0  0 255 0
4.91741 1.34671 0  0 255 0
4.89384 1.34928 0  0 255 0
4.87029 1.35197 0  0 255 0
4.84676 1.35477 0  0 255 0
4.82324 1.35767 0  0 255 0
4.79973 1.3607 0  0 255 0
4.77623 1.36383 0  0 255 0
4.75275 1.36707 0  0 255 0
4.72929 1.37042 0  0 255 0
4.70584 1.37389 0  0 255 0
4.68241 1.37747 0  0 255 0
4.659 1.38115 0  0 255 0
4.6356 1.38495 0  0 255 0
4.61223 1.38886 0  0 255 0
4.58887 1.39288 0  0 255 0
4.56553 1.39701 0  0 255 0
4.54221 1.40125 0  0 255 0
4.51891 1.40561 0  0 255 0
4.49563 1.41007 0  0 255 0
4.47238 1.41464 0  0 255 0
4.44914 1.41932 0  0 255 0
4.42593 1.42412 0  0 255 0
4.40274 1.42902 0  0 255 0
4.37957 1.43403 0  0 255 0
4.35643 1.43916 0  0 255 0
4.33331 1.44439 0  0 255 0
4.31022 1.44973 0  0 255 0
4.28716 1.45518 0  0 255 0
4.26412 1.46074 0  0 255 0
4.2411 1.46641 0  0 255 0
4.21811 1.47219 0  0 255 0
4.19516 1.47808 0  0 255 0
4.17222 1.48407 0  0 255 0
4.14932 1.49018 0  0 255 0
4.12645 1.49639 0  0 255 0
4.10361 1.50271 0  0 255 0
4.08079 1.50914 0  0 255 0
4.05801 1.51568 0  0 255 0
4.03526 1.52233 0  0 255 0
4.01254 1.52908 0  0 255 0
3.98985 1.53594 0  0 255 0
3.9672 1.54291 0  0 255 0
3.94458 1.54999 0  0 255 0
3.92199 1.55717 0  0 255 0
3.89944 1.56446 0  0 255 0
3.87692 1.57186 0  0 255 0
3.85444 1.57936 0  0 255 0
3.83199 1.58697 0  0 255 0
3.80958 1.59469 0  0 255 0
3.78721 1.60251 0  0 255 0
3.76487 1.61044 0  0 255 0
3.74257 1.61848 0  0 255 0
3.72031 1.62662 0  0 255 0
3.69809 1.63486 0  0 255 0
3.67591 1.64321 0  0 255 0
3.65376 1.65167 0  0 255 0
3.63166 1.66023 0  0 255 0
3.6096 1.66889 0  0 255 0
3.58758 1.67766 0  0 255 0
3.5656 1.68654 0  0 255 0
3.54367 1.69552 0  0 255 0
3.52178 1.7046 0  0 255 0
3.49993 1.71378 0  0 255 0
3.47812 1.72307 0  0 255 0
3.45636 1.73247 0  0 255 0
3.43464 1.74196 0  0 255 0
3.41297 1.75156 0  0 255 0
3.39134 1.76126 0  0 255 0
3.36977 1.77106 0  0 255 0
3.34823 1.78097 0  0 255 0
3.32675 1.79098 0  0 255 0
3.30531 1.80109 0  0 255 0
3.28392 1.8113 0  0 255 0
3.26258 1.82161 0  0 255 0
3.24129 1.83202 0  0 255 0
3.22004 1.84254 0  0 255 0
3.19885 1.85315 0  0 255 0
3.17771 1.86387 0  0 255 0
3.15662 1.87468 0  0 255 0
3.13558 1.8856 0  0 255 0
3.11459 1.89661 0  0 255 0
3.09366 1.90772 0  0 255 0
3.07278 1.91894 0  0 255 0
3.05195 1.93025 0  0 255 0
3.03117 1.94166 0  0 255 0
3.01045 1.95317 0  0 255 0
2.98979 1.96478 0  0 255 0
2.96918 1.97648 0  0 255 0
